<svg version="1" xmlns="http://www.w3.org/2000/svg" width="346.667" height="346.667" viewBox="0 0 260.000000 260.000000"><path d="M13.3 55.2c.7 3.4 11.6 39.4 15.4 50.8.8 2.5 1.6 5.2 1.8 6 .4 1.4 2.6 8.6 14.3 47C56.5 197.3 62 215.3 62 215.6c0 .2 7.8.4 17.3.4h17.3l11.8-39.3c6.5-21.5 13.8-46 16.3-54.2 2.5-8.3 5.1-17 5.8-19.5.7-2.5 4.3-14.4 7.9-26.4 3.6-12.1 6.6-22.3 6.6-22.8s-8.8-.7-19.6-.6l-19.6.3-1.8 7c-1 3.8-4.1 16-7 27-2.9 11-5.3 20.7-5.5 21.5-.2.8-2 7.6-4 15s-4.7 18.9-5.9 25.5l-2.3 12-1.2-6c-3.2-16.3-12.7-52.3-25.2-95.8l-2-6.7H12.8l.5 2.2zM153.1 71.5l.1 18.5H178.5v125.5l18.8.3 18.7.2V90h25.5V53H153l.1 18.5z"/></svg>