<?xml version="1.0" standalone="no"?>
<!DOCTYPE svg PUBLIC "-//W3C//DTD SVG 20010904//EN"
 "http://www.w3.org/TR/2001/REC-SVG-20010904/DTD/svg10.dtd">
<svg version="1.0" xmlns="http://www.w3.org/2000/svg"
 width="260.000000pt" height="260.000000pt" viewBox="0 0 260.000000 260.000000"
 preserveAspectRatio="xMidYMid meet">
<metadata>
Created by potrace 1.11, written by Peter Selinger 2001-2013
</metadata>
<g transform="translate(0.000000,260.000000) scale(0.100000,-0.100000)"
fill="#000000" stroke="none">
<path d="M133 2048 c7 -34 116 -394 154 -508 8 -25 16 -52 18 -60 4 -14 26
-86 143 -470 117 -383 172 -563 172 -566 0 -2 78 -4 173 -4 l173 0 118 393
c65 215 138 460 163 542 25 83 51 170 58 195 7 25 43 144 79 264 36 121 66
223 66 228 0 5 -88 7 -196 6 l-196 -3 -18 -70 c-10 -38 -41 -160 -70 -270 -29
-110 -53 -207 -55 -215 -2 -8 -20 -76 -40 -150 -20 -74 -47 -189 -59 -255
l-23 -120 -12 60 c-32 163 -127 523 -252 958 l-20 67 -191 0 -190 0 5 -22z"/>
<path d="M1531 1885 l1 -185 126 0 127 0 0 -627 0 -628 188 -3 187 -2 0 630 0
630 128 0 127 0 0 185 0 185 -442 0 -443 0 1 -185z"/>
</g>
</svg>
